# Blender v2.81 (sub 16) OBJ File: 'boomArm.blend'
# www.blender.org
mtllib boomArm.mtl
o Cube_Cube.001
v -0.900000 -0.900000 12.000000
v -0.900000 0.900000 12.000000
v 0.900000 -0.900000 12.000000
v 0.900000 0.900000 12.000000
v -1.100000 1.100000 -11.688938
v -1.100000 1.100000 -12.014812
v -1.100000 -1.100000 -12.014812
v 1.100000 -1.100000 -12.014812
v 1.100000 1.100000 -12.014812
v 1.100000 -1.100000 -11.688938
v -1.100000 -1.100000 -11.688938
v 1.100000 1.100000 -11.688938
v -1.000000 -0.900000 11.700001
v -0.900000 -1.000000 11.700001
v -0.900000 1.000000 11.700001
v -1.000000 0.900000 11.700001
v 0.900000 -1.000000 11.700001
v 1.000000 -0.900000 11.700001
v 1.000000 0.900000 11.700001
v 0.900000 1.000000 11.700001
v -1.000000 0.900000 -11.703751
v -0.900000 1.000000 -11.703751
v 1.000000 -0.900000 -11.703751
v 0.900000 -1.000000 -11.703751
v -0.900000 -1.000000 -11.703751
v -1.000000 -0.900000 -11.703751
v 0.900000 1.000000 -11.703751
v 1.000000 0.900000 -11.703751
vt 0.572329 0.488263
vt 0.564289 0.472185
vt 0.564289 0.327490
vt 0.572329 0.311412
vt 0.049663 0.870582
vt 0.049663 0.798235
vt 0.990335 0.798235
vt 0.990335 0.870582
vt 0.555810 0.659785
vt 0.411115 0.659785
vt 0.411115 0.515089
vt 0.555810 0.515089
vt 0.990335 0.798234
vt 0.990335 0.870582
vt 0.049663 0.870582
vt 0.049663 0.798234
vt 0.116002 0.667282
vt 0.116002 0.522587
vt 0.272781 0.522587
vt 0.272781 0.667282
vt 0.555810 0.668071
vt 0.411115 0.668071
vt 0.564096 0.515089
vt 0.564096 0.659785
vt 0.556251 0.319451
vt 0.411555 0.319451
vt 0.395477 0.311412
vt 0.116002 0.667282
vt 0.116002 0.522587
vt 0.272780 0.522587
vt 0.272780 0.667282
vt 0.402829 0.659785
vt 0.402829 0.515089
vt 0.789425 0.497639
vt 0.789425 0.672791
vt 0.786368 0.672805
vt 0.786368 0.497652
vt 0.611215 0.497652
vt 0.611215 0.672805
vt 0.608158 0.672818
vt 0.608158 0.497665
vt 0.611202 0.494595
vt 0.786355 0.494595
vt 0.786381 0.675862
vt 0.611229 0.675862
vt 0.395477 0.488263
vt 0.411555 0.480224
vt 0.556251 0.480224
vt 0.403517 0.327490
vt 0.403517 0.472185
vt 0.556298 0.506817
vt 0.410627 0.506817
vt 0.556298 0.668056
vt 0.410627 0.668056
vt 0.272780 0.678650
vt 0.116002 0.678651
vt 0.272781 0.678651
vt 0.116002 0.678651
vt 0.116002 0.511218
vt 0.272781 0.511218
vt 0.116002 0.511218
vt 0.272780 0.511218
vt 0.411115 0.506803
vt 0.555810 0.506803
vn 0.1465 0.0000 0.9892
vn 1.0000 0.0000 0.0000
vn 0.0000 0.0000 1.0000
vn -1.0000 0.0000 0.0000
vn 0.0000 1.0000 0.0000
vn 0.9487 0.0000 0.3162
vn 0.0000 -0.9487 0.3162
vn 0.0000 -0.1465 0.9892
vn 0.0000 -1.0000 0.0000
vn 0.0000 0.9487 0.3162
vn 0.0000 0.1465 0.9892
vn -0.1465 0.0000 0.9892
vn 0.0000 0.0000 -1.0000
vn -0.6882 -0.6882 0.2294
vn -0.6882 0.6882 0.2294
vn 0.6882 -0.6882 0.2294
vn 0.6882 0.6882 0.2294
vn 0.0493 -0.0493 0.9976
vn -0.0493 0.0493 0.9976
vn 0.0493 0.0493 0.9976
vn -0.0493 -0.0493 0.9976
vn -0.7071 -0.7071 0.0000
vn 0.7071 0.7071 0.0000
vn -0.7071 0.7071 0.0000
vn 0.7071 -0.7071 0.0000
vn -0.9487 0.0000 0.3162
usemtl None
s off
f 11/1/1 26/2/1 21/3/1 5/4/1
f 23/5/2 28/6/2 19/7/2 18/8/2
f 3/9/3 4/10/3 2/11/3 1/12/3
f 13/13/4 16/14/4 21/15/4 26/16/4
f 27/17/5 22/18/5 15/19/5 20/20/5
f 3/9/6 18/21/6 19/22/6 4/10/6
f 1/12/7 14/23/7 17/24/7 3/9/7
f 5/4/8 22/25/8 27/26/8 12/27/8
f 25/28/9 24/29/9 17/30/9 14/31/9
f 4/10/10 20/32/10 15/33/10 2/11/10
f 11/34/4 5/35/4 6/36/4 7/37/4
f 8/38/2 9/39/2 12/40/2 10/41/2
f 7/37/9 8/38/9 10/42/9 11/43/9
f 9/39/5 6/36/5 5/44/5 12/45/5
f 10/46/11 24/47/11 25/48/11 11/1/11
f 12/27/12 28/49/12 23/50/12 10/46/12
f 7/37/13 6/36/13 9/39/13 8/38/13
f 13/51/14 14/23/14 1/12/14
f 15/33/15 16/52/15 2/11/15
f 17/24/16 18/53/16 3/9/16
f 19/54/17 20/32/17 4/10/17
f 21/3/18 22/25/18 5/4/18
f 23/50/19 24/47/19 10/46/19
f 25/48/20 26/2/20 11/1/20
f 27/26/21 28/49/21 12/27/21
f 25/28/22 14/31/22 13/55/22 26/56/22
f 27/17/23 20/20/23 19/57/23 28/58/23
f 15/19/24 22/18/24 21/59/24 16/60/24
f 17/30/25 24/29/25 23/61/25 18/62/25
f 1/12/26 2/11/26 16/63/26 13/64/26
